<?xml version="1.0" encoding="UTF-8" standalone="no"?>
<!DOCTYPE svg PUBLIC "-//W3C//DTD SVG 1.1//EN" "http://www.w3.org/Graphics/SVG/1.1/DTD/svg11.dtd">
<svg width="100%" height="100%" viewBox="0 0 2000 500" version="1.1" xmlns="http://www.w3.org/2000/svg" xmlns:xlink="http://www.w3.org/1999/xlink" xml:space="preserve" xmlns:serif="http://www.serif.com/" style="fill-rule:evenodd;clip-rule:evenodd;stroke-linecap:round;stroke-linejoin:round;stroke-miterlimit:1.5;">
    <g id="si_logo01" transform="matrix(0.664467,0,0,0.664467,1000,199.34)">
        <g transform="matrix(1,0,0,1,-300,-300)">
            <g id="Baked" transform="matrix(1.20668,0,0,1.20668,-72.7196,-62.0037)">
                <path d="M150.5,246.501L111.086,202.258C99.532,189.288 98.539,170.031 108.699,155.941C118.859,141.851 137.443,136.711 153.399,143.578L176.222,153.4C159.683,175.903 150.5,203.322 150.5,231.829L150.5,246.501L174.059,272.946C188.896,289.602 213.733,292.789 232.296,280.42C250.858,268.05 257.479,243.9 247.819,223.794C247.817,223.791 247.816,223.788 247.814,223.785C241.368,210.367 239.81,195.703 242.588,181.961L176.222,153.4C182.877,144.344 190.725,136.084 199.644,128.869C230.727,103.727 271.505,93.973 310.6,102.328C360.174,112.923 409.522,123.47 439.216,129.816C455.676,133.333 467.596,147.651 468.07,164.476C468.39,175.787 468.769,189.223 469.142,202.441C469.418,212.215 463.738,221.181 454.782,225.106C445.826,229.032 435.384,227.134 428.383,220.307C408.252,200.678 382.361,175.432 353.839,147.621C330.817,125.173 295.005,122.485 268.89,141.245C254.865,151.32 245.809,166.02 242.588,181.961L447.652,270.213C459.552,275.334 467.261,287.045 467.261,300L467.261,353.499L506.675,397.742C518.229,410.712 519.222,429.969 509.062,444.059C498.902,458.149 480.318,463.289 464.362,456.422L441.539,446.6C458.078,424.097 467.261,396.678 467.261,368.171L467.261,353.499L443.702,327.054C428.865,310.398 404.028,307.211 385.465,319.58C366.903,331.95 360.282,356.1 369.942,376.206C369.944,376.209 369.945,376.212 369.947,376.215C376.393,389.633 377.951,404.297 375.173,418.039L441.539,446.6C434.884,455.656 427.036,463.916 418.117,471.131C387.034,496.273 346.256,506.027 307.161,497.672C257.587,487.077 208.239,476.53 178.545,470.184C162.085,466.667 150.165,452.349 149.691,435.524C149.371,424.213 148.992,410.777 148.619,397.559C148.343,387.785 154.023,378.819 162.979,374.894C171.935,370.968 182.377,372.866 189.378,379.693C209.509,399.322 235.4,424.568 263.922,452.379C286.944,474.827 322.756,477.515 348.871,458.755C362.896,448.68 371.952,433.98 375.173,418.039L170.109,329.787C158.209,324.666 150.5,312.955 150.5,300L150.5,246.501Z" style="fill:url(#_Linear1);"/>
            </g>
        </g>
    </g>
    <g id="si_analysis" transform="matrix(1,0,0,1,271.976,121.993)">
        <g transform="matrix(1,0,0,1,-64,-64)">
            <g id="Analysis" transform="matrix(1,0,0,1,-192,-137.621)">
                <rect x="192" y="137.621" width="128" height="128" style="fill:none;"/>
                <g transform="matrix(1.80865,0,0,1.80865,144.281,185.103)">
                    <circle cx="41.748" cy="26.471" r="13.27" style="fill:rgb(153,153,153);"/>
                </g>
                <g transform="matrix(1.80865,0,0,1.80865,216.703,185.103)">
                    <circle cx="41.748" cy="26.471" r="13.27" style="fill:rgb(153,153,153);"/>
                </g>
                <g transform="matrix(1.80865,0,0,1.80865,180.492,122.384)">
                    <circle cx="41.748" cy="26.471" r="13.27" style="fill:url(#_Linear2);"/>
                </g>
                <g transform="matrix(0.711712,0,0,1,73.8018,-140.797)">
                    <path d="M224.156,373.777L287.844,373.777" style="fill:none;stroke:rgb(153,153,153);stroke-width:9.22px;"/>
                </g>
            </g>
        </g>
    </g>
    <g id="si_euclidian_plot" transform="matrix(1,0,0,1,528.024,121.993)">
        <g transform="matrix(1,0,0,1,-64,-64)">
            <g id="Euclidian-Plot" serif:id="Euclidian Plot" transform="matrix(1,0,0,1,-192,-137.621)">
                <rect x="192" y="137.621" width="128" height="128" style="fill:none;"/>
                <g transform="matrix(1.70572,-0.984797,0.640563,1.10949,-420.092,39.0278)">
                    <path d="M224.156,373.777L287.844,373.777" style="fill:none;stroke:rgb(153,153,153);stroke-width:4.82px;"/>
                </g>
                <g transform="matrix(1.70572,0.984797,-0.640563,1.10949,58.7636,-465.188)">
                    <path d="M224.156,373.777L287.844,373.777" style="fill:none;stroke:rgb(153,153,153);stroke-width:4.82px;"/>
                </g>
                <g transform="matrix(9.11696e-17,1.6174,-1.28113,2.22045e-16,734.855,-212.433)">
                    <path d="M224.156,373.777L287.844,373.777" style="fill:none;stroke:rgb(153,153,153);stroke-width:5.48px;"/>
                </g>
                <g transform="matrix(1.69586,0,0,1.69586,217.015,134.226)">
                    <circle cx="41.748" cy="26.471" r="13.27" style="fill:url(#_Linear3);"/>
                </g>
            </g>
        </g>
    </g>
    <g id="si_filter" transform="matrix(1,0,0,1,528.024,378.007)">
        <g transform="matrix(1,0,0,1,-64,-64)">
            <clipPath id="_clip4">
                <rect x="0" y="0" width="128" height="128"/>
            </clipPath>
            <g clip-path="url(#_clip4)">
                <g id="Filter" transform="matrix(1.03226,0,0,1,-138.655,0)">
                    <rect x="134.322" y="0" width="124" height="128" style="fill:none;"/>
                    <g transform="matrix(0.709768,-0.732665,0.709768,0.732665,-36.3362,208.62)">
                        <path d="M308.321,44.336C300.308,26.541 282.605,15.098 263.089,15.098C243.573,15.098 225.87,26.541 217.857,44.336L308.321,44.336Z" style="fill:url(#_Linear5);"/>
                    </g>
                    <g transform="matrix(0.709768,-0.732665,0.709768,0.732665,-36.3362,208.62)">
                        <path d="M214.281,55.838C213.75,58.764 213.482,61.731 213.482,64.705C213.482,92.084 235.71,114.312 263.089,114.312C290.468,114.312 312.696,92.084 312.696,64.705C312.696,61.731 312.428,58.764 311.897,55.838L214.281,55.838Z" style="fill:rgb(153,153,153);"/>
                    </g>
                </g>
            </g>
        </g>
    </g>
    <g id="si_generate_data" transform="matrix(1,0,0,1,271.976,378.007)">
        <g transform="matrix(1,0,0,1,-64,-64)">
            <rect id="Generate-Data" serif:id="Generate Data" x="0" y="0" width="128" height="128" style="fill:none;"/>
            <g id="Generate-Data1" serif:id="Generate Data">
                <g transform="matrix(1.47244,0,0,1.47244,-29.4713,45.8146)">
                    <circle cx="41.748" cy="26.471" r="13.27" style="fill:url(#_Linear6);"/>
                </g>
                <g transform="matrix(0.952564,0,0,0.952564,24.2323,83.7048)">
                    <circle cx="41.748" cy="26.471" r="13.27" style="fill:url(#_Linear7);"/>
                </g>
                <g transform="matrix(2.8226,0,0,2.8226,-35.2923,-30.8227)">
                    <circle cx="41.748" cy="26.471" r="13.27" style="fill:url(#_Linear8);"/>
                </g>
            </g>
        </g>
    </g>
    <g id="si_import_csv" transform="matrix(1,0,0,1,1724.81,122.007)">
        <g transform="matrix(1,0,0,1,-64,-64)">
            <g id="Import-CSV" serif:id="Import CSV">
                <rect x="0" y="0" width="128" height="128" style="fill:none;"/>
                <g transform="matrix(-0.631385,-7.73223e-17,-2.63264e-16,2.14971,45.3574,-313.847)">
                    <path d="M59.167,159.02C59.167,155.939 50.651,153.437 40.162,153.437C29.672,153.437 21.156,155.939 21.156,159.02C21.156,162.1 29.672,164.602 40.162,164.602C50.651,164.602 59.167,162.1 59.167,159.02Z" style="fill:url(#_Linear9);"/>
                </g>
                <g transform="matrix(-2.17297,-7.73223e-17,-9.06048e-16,2.14971,165.971,-313.847)">
                    <path d="M59.167,159.02C59.167,155.939 56.693,153.437 53.645,153.437L26.678,153.437C23.63,153.437 21.156,155.939 21.156,159.02C21.156,162.1 23.63,164.602 26.678,164.602L53.645,164.602C56.693,164.602 59.167,162.1 59.167,159.02Z" style="fill:url(#_Linear10);"/>
                </g>
                <g transform="matrix(-0.631385,-7.73223e-17,-2.63264e-16,2.14971,45.3574,-278.796)">
                    <path d="M59.167,159.02C59.167,155.939 50.651,153.437 40.162,153.437C29.672,153.437 21.156,155.939 21.156,159.02C21.156,162.1 29.672,164.602 40.162,164.602C50.651,164.602 59.167,162.1 59.167,159.02Z" style="fill:url(#_Linear11);"/>
                </g>
                <g transform="matrix(-2.17297,-7.73223e-17,-9.06048e-16,2.14971,165.971,-278.796)">
                    <path d="M59.167,159.02C59.167,155.939 56.693,153.437 53.645,153.437L26.678,153.437C23.63,153.437 21.156,155.939 21.156,159.02C21.156,162.1 23.63,164.602 26.678,164.602L53.645,164.602C56.693,164.602 59.167,162.1 59.167,159.02Z" style="fill:url(#_Linear12);"/>
                </g>
                <g transform="matrix(-0.631385,-7.73223e-17,-2.63264e-16,2.14971,45.3574,-241.847)">
                    <path d="M59.167,159.02C59.167,155.939 50.651,153.437 40.162,153.437C29.672,153.437 21.156,155.939 21.156,159.02C21.156,162.1 29.672,164.602 40.162,164.602C50.651,164.602 59.167,162.1 59.167,159.02Z" style="fill:url(#_Linear13);"/>
                </g>
                <g transform="matrix(-2.17297,-7.73223e-17,-9.06048e-16,2.14971,165.971,-241.847)">
                    <path d="M59.167,159.02C59.167,155.939 56.693,153.437 53.645,153.437L26.678,153.437C23.63,153.437 21.156,155.939 21.156,159.02C21.156,162.1 23.63,164.602 26.678,164.602L53.645,164.602C56.693,164.602 59.167,162.1 59.167,159.02Z" style="fill:url(#_Linear14);"/>
                </g>
            </g>
        </g>
    </g>
    <g id="si_parse_string" transform="matrix(1,0,0,1,1468.84,122.007)">
        <g transform="matrix(1,0,0,1,-64,-64)">
            <g id="Parse-String" serif:id="Parse String" transform="matrix(1,0,0,1,-192,-137.621)">
                <rect x="192" y="137.621" width="128" height="128" style="fill:none;"/>
                <g transform="matrix(1.53352,0,0,1.53352,191.978,189.6)">
                    <circle cx="41.748" cy="26.471" r="13.27" style="fill:url(#_Linear15);"/>
                </g>
                <g transform="matrix(1,0,0,1,-0.688513,-149.566)">
                    <path d="M220.427,342.962C209.196,342.962 200.078,333.844 200.078,322.613C200.078,311.382 209.196,302.264 220.427,302.264L292.95,302.264L293.082,302.265C304.252,302.335 313.299,311.426 313.299,322.613C313.299,333.844 304.181,342.962 292.95,342.962L220.427,342.962Z" style="fill:rgb(153,153,153);"/>
                </g>
            </g>
        </g>
    </g>
    <g id="si_polar_plot" transform="matrix(1,0,0,1,1724.81,378.007)">
        <g transform="matrix(1,0,0,1,-64,-64)">
            <clipPath id="_clip16">
                <rect x="0" y="0" width="128" height="128"/>
            </clipPath>
            <g clip-path="url(#_clip16)">
                <g id="Polar-Plot" serif:id="Polar Plot" transform="matrix(1,0,0,1,-192,-137.621)">
                    <rect x="192" y="137.621" width="128" height="128" style="fill:none;"/>
                    <g transform="matrix(0.930233,0,0,0.736284,-337.556,55.0727)">
                        <ellipse cx="638.031" cy="199.037" rx="54.278" ry="29.721" style="fill:none;stroke:rgb(153,153,153);stroke-width:9.54px;"/>
                    </g>
                    <g transform="matrix(5.69603e-17,0.930233,-0.736284,4.50844e-17,402.509,-391.897)">
                        <ellipse cx="638.031" cy="199.037" rx="54.278" ry="29.721" style="fill:none;stroke:rgb(153,153,153);stroke-width:9.54px;"/>
                    </g>
                    <g transform="matrix(-0.930233,1.13921e-16,-2.08048e-16,-1.69884,849.479,539.753)">
                        <ellipse cx="638.031" cy="199.037" rx="54.278" ry="29.721" style="fill:none;stroke:rgb(153,153,153);stroke-width:5.84px;"/>
                    </g>
                    <g transform="matrix(1.69586,0,0,1.69586,217.015,134.226)">
                        <circle cx="41.748" cy="26.471" r="13.27" style="fill:url(#_Linear17);"/>
                    </g>
                </g>
            </g>
        </g>
    </g>
    <g id="si_transform" transform="matrix(1,0,0,1,1468.84,378.007)">
        <g transform="matrix(1,0,0,1,-64,-64)">
            <clipPath id="_clip18">
                <rect x="0" y="0" width="128" height="128"/>
            </clipPath>
            <g clip-path="url(#_clip18)">
                <g id="Transform" transform="matrix(1,0,0,1,-192,-137.621)">
                    <rect x="192" y="137.621" width="128" height="128" style="fill:none;"/>
                    <g transform="matrix(1.53352,0,0,1.53352,155.53,197.475)">
                        <circle cx="41.748" cy="26.471" r="13.27" style="fill:rgb(153,153,153);"/>
                    </g>
                    <g transform="matrix(3.26215,0,0,3.26215,133.322,101.758)">
                        <circle cx="41.748" cy="26.471" r="13.27" style="fill:url(#_Linear19);"/>
                    </g>
                </g>
            </g>
        </g>
    </g>
    <g transform="matrix(8.09005,0,0,8.09005,-6532.01,-3118.88)">
        <path d="M911.696,442.769C911.168,442.769 910.672,442.727 910.208,442.643C909.744,442.559 909.352,442.441 909.032,442.289L909.032,440.429C909.4,440.597 909.804,440.733 910.244,440.837C910.684,440.941 911.092,440.993 911.468,440.993C911.9,440.993 912.21,440.955 912.398,440.879C912.586,440.803 912.68,440.653 912.68,440.429C912.68,440.285 912.634,440.167 912.542,440.075C912.45,439.983 912.316,439.903 912.14,439.835C911.964,439.767 911.684,439.673 911.3,439.553C911.172,439.521 911.076,439.493 911.012,439.469C910.484,439.301 910.07,439.117 909.77,438.917C909.47,438.717 909.254,438.475 909.122,438.191C908.99,437.907 908.924,437.553 908.924,437.129C908.924,436.369 909.196,435.791 909.74,435.395C910.284,434.999 911.084,434.801 912.14,434.801C912.548,434.801 912.978,434.835 913.43,434.903C913.882,434.971 914.256,435.053 914.552,435.149L914.552,437.021C913.848,436.741 913.164,436.601 912.5,436.601C912.076,436.601 911.758,436.633 911.546,436.697C911.334,436.761 911.228,436.901 911.228,437.117C911.228,437.253 911.272,437.361 911.36,437.441C911.448,437.521 911.582,437.591 911.762,437.651C911.942,437.711 912.248,437.797 912.68,437.909C913.296,438.077 913.77,438.279 914.102,438.515C914.434,438.751 914.664,439.021 914.792,439.325C914.92,439.629 914.984,439.997 914.984,440.429C914.984,441.149 914.706,441.719 914.15,442.139C913.594,442.559 912.776,442.769 911.696,442.769Z" style="fill:rgb(153,153,153);fill-rule:nonzero;"/>
        <path d="M915.824,434.921L918.08,434.921L918.08,437.801L920.744,437.801L920.744,434.921L923,434.921L923,442.649L920.744,442.649L920.744,439.769L918.08,439.769L918.08,442.649L915.824,442.649L915.824,434.921Z" style="fill:rgb(153,153,153);fill-rule:nonzero;"/>
        <path d="M924.08,434.921L926,434.921L928.916,439.013L928.916,434.921L931.172,434.921L931.172,442.649L929.24,442.649L926.336,438.569L926.336,442.649L924.08,442.649L924.08,434.921Z" style="fill:rgb(153,153,153);fill-rule:nonzero;"/>
        <path d="M935.96,442.769C934.656,442.769 933.672,442.451 933.008,441.815C932.344,441.179 932.012,440.177 932.012,438.809C932.012,437.401 932.342,436.381 933.002,435.749C933.662,435.117 934.648,434.801 935.96,434.801C937.272,434.801 938.258,435.119 938.918,435.755C939.578,436.391 939.908,437.409 939.908,438.809C939.908,440.169 939.576,441.169 938.912,441.809C938.248,442.449 937.264,442.769 935.96,442.769ZM935.96,440.849C936.536,440.849 936.954,440.687 937.214,440.363C937.474,440.039 937.604,439.521 937.604,438.809C937.604,438.057 937.476,437.521 937.22,437.201C936.964,436.881 936.544,436.721 935.96,436.721C935.376,436.721 934.956,436.881 934.7,437.201C934.444,437.521 934.316,438.057 934.316,438.809C934.316,439.521 934.446,440.039 934.706,440.363C934.966,440.687 935.384,440.849 935.96,440.849Z" style="fill:rgb(153,153,153);fill-rule:nonzero;"/>
        <path d="M940.748,434.921L944.732,434.921C945.644,434.921 946.336,435.185 946.808,435.713C947.28,436.241 947.516,436.925 947.516,437.765C947.516,438.309 947.4,438.793 947.168,439.217C946.936,439.641 946.606,439.973 946.178,440.213C945.75,440.453 945.252,440.573 944.684,440.573L943.004,440.573L943.004,442.649L940.748,442.649L940.748,434.921ZM944.168,438.845C944.504,438.845 944.762,438.747 944.942,438.551C945.122,438.355 945.212,438.093 945.212,437.765C945.212,437.413 945.13,437.139 944.966,436.943C944.802,436.747 944.556,436.649 944.228,436.649L943.004,436.649L943.004,438.845L944.168,438.845Z" style="fill:rgb(153,153,153);fill-rule:nonzero;"/>
        <path d="M950.336,442.769C949.864,442.769 949.412,442.735 948.98,442.667C948.548,442.599 948.204,442.513 947.948,442.409L947.948,440.789C948.212,440.917 948.536,441.017 948.92,441.089C949.304,441.161 949.644,441.197 949.94,441.197C950.292,441.197 950.526,441.187 950.642,441.167C950.758,441.147 950.816,441.081 950.816,440.969C950.816,440.873 950.754,440.797 950.63,440.741C950.506,440.685 950.304,440.617 950.024,440.537L949.424,440.345C948.872,440.145 948.476,439.921 948.236,439.673C947.996,439.425 947.876,439.073 947.876,438.617C947.876,437.433 948.804,436.841 950.66,436.841C951.012,436.841 951.384,436.869 951.776,436.925C952.168,436.981 952.484,437.045 952.724,437.117L952.724,438.701C952.492,438.605 952.234,438.531 951.95,438.479C951.666,438.427 951.404,438.401 951.164,438.401C950.836,438.401 950.59,438.415 950.426,438.443C950.262,438.471 950.18,438.537 950.18,438.641C950.18,438.729 950.234,438.797 950.342,438.845C950.45,438.893 950.64,438.953 950.912,439.025L951.44,439.181C951.872,439.309 952.21,439.449 952.454,439.601C952.698,439.753 952.87,439.935 952.97,440.147C953.07,440.359 953.12,440.629 953.12,440.957C953.12,441.541 952.884,441.989 952.412,442.301C951.94,442.613 951.248,442.769 950.336,442.769Z" style="fill:rgb(153,153,153);fill-rule:nonzero;"/>
    </g>
    <defs>
        <linearGradient id="_Linear1" x1="0" y1="0" x2="1" y2="0" gradientUnits="userSpaceOnUse" gradientTransform="matrix(2.46224e-14,402.114,-402.114,2.46224e-14,300,99.0838)"><stop offset="0" style="stop-color:rgb(0,255,226);stop-opacity:1"/><stop offset="1" style="stop-color:rgb(0,186,210);stop-opacity:1"/></linearGradient>
        <linearGradient id="_Linear2" x1="0" y1="0" x2="1" y2="0" gradientUnits="userSpaceOnUse" gradientTransform="matrix(1.62877e-15,26.5999,-26.5999,1.62877e-15,41.1792,13.1804)"><stop offset="0" style="stop-color:rgb(0,255,226);stop-opacity:1"/><stop offset="1" style="stop-color:rgb(0,186,210);stop-opacity:1"/></linearGradient>
        <linearGradient id="_Linear3" x1="0" y1="0" x2="1" y2="0" gradientUnits="userSpaceOnUse" gradientTransform="matrix(1.62877e-15,26.5999,-26.5999,1.62877e-15,41.1792,13.1804)"><stop offset="0" style="stop-color:rgb(0,255,226);stop-opacity:1"/><stop offset="1" style="stop-color:rgb(0,186,210);stop-opacity:1"/></linearGradient>
        <linearGradient id="_Linear5" x1="0" y1="0" x2="1" y2="0" gradientUnits="userSpaceOnUse" gradientTransform="matrix(-47.51,47.51,-47.51,-47.51,263.089,-5.45176)"><stop offset="0" style="stop-color:rgb(0,255,226);stop-opacity:1"/><stop offset="1" style="stop-color:rgb(0,186,210);stop-opacity:1"/></linearGradient>
        <linearGradient id="_Linear6" x1="0" y1="0" x2="1" y2="0" gradientUnits="userSpaceOnUse" gradientTransform="matrix(1.62877e-15,26.5999,-26.5999,1.62877e-15,41.1792,13.1804)"><stop offset="0" style="stop-color:rgb(0,255,226);stop-opacity:1"/><stop offset="1" style="stop-color:rgb(0,186,210);stop-opacity:1"/></linearGradient>
        <linearGradient id="_Linear7" x1="0" y1="0" x2="1" y2="0" gradientUnits="userSpaceOnUse" gradientTransform="matrix(1.62877e-15,26.5999,-26.5999,1.62877e-15,41.1792,13.1804)"><stop offset="0" style="stop-color:rgb(0,255,226);stop-opacity:1"/><stop offset="1" style="stop-color:rgb(0,186,210);stop-opacity:1"/></linearGradient>
        <linearGradient id="_Linear8" x1="0" y1="0" x2="1" y2="0" gradientUnits="userSpaceOnUse" gradientTransform="matrix(1.62877e-15,26.5999,-26.5999,1.62877e-15,41.1792,13.1804)"><stop offset="0" style="stop-color:rgb(0,255,226);stop-opacity:1"/><stop offset="1" style="stop-color:rgb(0,186,210);stop-opacity:1"/></linearGradient>
        <linearGradient id="_Linear9" x1="0" y1="0" x2="1" y2="0" gradientUnits="userSpaceOnUse" gradientTransform="matrix(6.85184e-16,11.1899,-11.1899,6.85184e-16,39.3469,153.429)"><stop offset="0" style="stop-color:rgb(0,255,226);stop-opacity:1"/><stop offset="1" style="stop-color:rgb(0,186,210);stop-opacity:1"/></linearGradient>
        <linearGradient id="_Linear10" x1="0" y1="0" x2="1" y2="0" gradientUnits="userSpaceOnUse" gradientTransform="matrix(6.85184e-16,11.1899,-11.1899,6.85184e-16,39.3469,153.429)"><stop offset="0" style="stop-color:rgb(0,255,226);stop-opacity:1"/><stop offset="1" style="stop-color:rgb(0,186,210);stop-opacity:1"/></linearGradient>
        <linearGradient id="_Linear11" x1="0" y1="0" x2="1" y2="0" gradientUnits="userSpaceOnUse" gradientTransform="matrix(6.85184e-16,11.1899,-11.1899,6.85184e-16,39.3469,153.429)"><stop offset="0" style="stop-color:rgb(0,255,226);stop-opacity:1"/><stop offset="1" style="stop-color:rgb(0,186,210);stop-opacity:1"/></linearGradient>
        <linearGradient id="_Linear12" x1="0" y1="0" x2="1" y2="0" gradientUnits="userSpaceOnUse" gradientTransform="matrix(6.85184e-16,11.1899,-11.1899,6.85184e-16,39.3469,153.429)"><stop offset="0" style="stop-color:rgb(0,255,226);stop-opacity:1"/><stop offset="1" style="stop-color:rgb(0,186,210);stop-opacity:1"/></linearGradient>
        <linearGradient id="_Linear13" x1="0" y1="0" x2="1" y2="0" gradientUnits="userSpaceOnUse" gradientTransform="matrix(6.85184e-16,11.1899,-11.1899,6.85184e-16,39.3469,153.429)"><stop offset="0" style="stop-color:rgb(0,255,226);stop-opacity:1"/><stop offset="1" style="stop-color:rgb(0,186,210);stop-opacity:1"/></linearGradient>
        <linearGradient id="_Linear14" x1="0" y1="0" x2="1" y2="0" gradientUnits="userSpaceOnUse" gradientTransform="matrix(6.85184e-16,11.1899,-11.1899,6.85184e-16,39.3469,153.429)"><stop offset="0" style="stop-color:rgb(0,255,226);stop-opacity:1"/><stop offset="1" style="stop-color:rgb(0,186,210);stop-opacity:1"/></linearGradient>
        <linearGradient id="_Linear15" x1="0" y1="0" x2="1" y2="0" gradientUnits="userSpaceOnUse" gradientTransform="matrix(1.62877e-15,26.5999,-26.5999,1.62877e-15,41.1792,13.1804)"><stop offset="0" style="stop-color:rgb(0,255,226);stop-opacity:1"/><stop offset="1" style="stop-color:rgb(0,186,210);stop-opacity:1"/></linearGradient>
        <linearGradient id="_Linear17" x1="0" y1="0" x2="1" y2="0" gradientUnits="userSpaceOnUse" gradientTransform="matrix(1.62877e-15,26.5999,-26.5999,1.62877e-15,41.1792,13.1804)"><stop offset="0" style="stop-color:rgb(0,255,226);stop-opacity:1"/><stop offset="1" style="stop-color:rgb(0,186,210);stop-opacity:1"/></linearGradient>
        <linearGradient id="_Linear19" x1="0" y1="0" x2="1" y2="0" gradientUnits="userSpaceOnUse" gradientTransform="matrix(1.62877e-15,26.5999,-26.5999,1.62877e-15,41.1792,13.1804)"><stop offset="0" style="stop-color:rgb(0,255,226);stop-opacity:1"/><stop offset="1" style="stop-color:rgb(0,186,210);stop-opacity:1"/></linearGradient>
    </defs>
</svg>
