<?xml version="1.0" encoding="UTF-8" standalone="no"?>
<!DOCTYPE svg PUBLIC "-//W3C//DTD SVG 1.1//EN" "http://www.w3.org/Graphics/SVG/1.1/DTD/svg11.dtd">
<svg width="100%" height="100%" viewBox="0 0 600 600" version="1.1" xmlns="http://www.w3.org/2000/svg" xmlns:xlink="http://www.w3.org/1999/xlink" xml:space="preserve" xmlns:serif="http://www.serif.com/" style="fill-rule:evenodd;clip-rule:evenodd;stroke-linejoin:round;stroke-miterlimit:1.41421;">
    <g id="Baked" transform="matrix(1.20668,0,0,1.20668,-72.7196,-62.0037)">
        <path d="M150.5,246.501L111.086,202.258C99.532,189.288 98.539,170.031 108.699,155.941C118.859,141.851 137.443,136.711 153.399,143.578L176.222,153.4C159.683,175.903 150.5,203.322 150.5,231.829L150.5,246.501L174.059,272.946C188.896,289.602 213.733,292.789 232.296,280.42C250.858,268.05 257.479,243.9 247.819,223.794C247.817,223.791 247.816,223.788 247.814,223.785C241.368,210.367 239.81,195.703 242.588,181.961L176.222,153.4C182.877,144.344 190.725,136.084 199.644,128.869C230.727,103.727 271.505,93.973 310.6,102.328C360.174,112.923 409.522,123.47 439.216,129.816C455.676,133.333 467.596,147.651 468.07,164.476C468.39,175.787 468.769,189.223 469.142,202.441C469.418,212.215 463.738,221.181 454.782,225.106C445.826,229.032 435.384,227.134 428.383,220.307C408.252,200.678 382.361,175.432 353.839,147.621C330.817,125.173 295.005,122.485 268.89,141.245C254.865,151.32 245.809,166.02 242.588,181.961L447.652,270.213C459.552,275.334 467.261,287.045 467.261,300L467.261,353.499L506.675,397.742C518.229,410.712 519.222,429.969 509.062,444.059C498.902,458.149 480.318,463.289 464.362,456.422L441.539,446.6C458.078,424.097 467.261,396.678 467.261,368.171L467.261,353.499L443.702,327.054C428.865,310.398 404.028,307.211 385.465,319.58C366.903,331.95 360.282,356.1 369.942,376.206C369.944,376.209 369.945,376.212 369.947,376.215C376.393,389.633 377.951,404.297 375.173,418.039L441.539,446.6C434.884,455.656 427.036,463.916 418.117,471.131C387.034,496.273 346.256,506.027 307.161,497.672C257.587,487.077 208.239,476.53 178.545,470.184C162.085,466.667 150.165,452.349 149.691,435.524C149.371,424.213 148.992,410.777 148.619,397.559C148.343,387.785 154.023,378.819 162.979,374.894C171.935,370.968 182.377,372.866 189.378,379.693C209.509,399.322 235.4,424.568 263.922,452.379C286.944,474.827 322.756,477.515 348.871,458.755C362.896,448.68 371.952,433.98 375.173,418.039L170.109,329.787C158.209,324.666 150.5,312.955 150.5,300L150.5,246.501Z" style="fill:url(#_Linear1);"/>
    </g>
    <defs>
        <linearGradient id="_Linear1" x1="0" y1="0" x2="1" y2="0" gradientUnits="userSpaceOnUse" gradientTransform="matrix(2.46224e-14,402.114,-402.114,2.46224e-14,300,99.0838)"><stop offset="0" style="stop-color:rgb(0,255,226);stop-opacity:1"/><stop offset="1" style="stop-color:rgb(0,186,210);stop-opacity:1"/></linearGradient>
    </defs>
</svg>
