<?xml version="1.0" encoding="UTF-8" standalone="no"?>
<!DOCTYPE svg PUBLIC "-//W3C//DTD SVG 1.1//EN" "http://www.w3.org/Graphics/SVG/1.1/DTD/svg11.dtd">
<svg width="100%" height="100%" viewBox="0 0 128 128" version="1.1" xmlns="http://www.w3.org/2000/svg" xmlns:xlink="http://www.w3.org/1999/xlink" xml:space="preserve" xmlns:serif="http://www.serif.com/" style="fill-rule:evenodd;clip-rule:evenodd;stroke-linejoin:round;stroke-miterlimit:2;">
    <g transform="matrix(1,0,0,1,-576,-420)">
        <g id="Bucket-Plot" serif:id="Bucket Plot" transform="matrix(1,0,0,1,384,282.379)">
            <rect x="192" y="137.621" width="128" height="128" style="fill:none;"/>
            <g id="Expanded">
                <g transform="matrix(6.26359e-18,0.230777,-1.28113,9.89355e-17,686.855,183.193)">
                    <path d="M189.503,373.608C190.236,370.362 205.718,367.577 224.156,367.532L287.844,367.532C308.276,367.582 325.873,371.212 321.888,374.954C318.884,377.774 304.175,379.982 287.844,380.021L224.156,380.021C206.124,379.977 190.252,377.265 189.503,373.946C189.491,373.777 189.491,373.777 189.503,373.608Z" style="fill:rgb(153,153,153);"/>
                </g>
                <g transform="matrix(5.36654e-17,1.00491,-1.28113,1.67666e-16,707.95,-39.6356)">
                    <path d="M216.208,373.427C216.33,372.291 216.488,371.981 216.801,371.387C217.883,369.338 220.433,367.822 223.265,367.572C223.66,367.537 223.76,367.541 224.156,367.532L287.844,367.532C293.918,367.666 298.256,374.009 293.78,377.938C292.488,379.071 290.657,379.812 288.735,379.982C288.34,380.017 288.24,380.013 287.844,380.021L224.156,380.021C222.704,379.989 222.3,379.883 221.527,379.671C218.721,378.901 216.582,376.82 216.245,374.476C216.148,373.802 216.2,373.642 216.208,373.427Z" style="fill:rgb(153,153,153);"/>
                </g>
                <g transform="matrix(8.44318e-17,1.50736,-1.28113,2.12275e-16,731.096,-184.264)">
                    <path d="M218.861,373.351C218.975,372.047 219.085,371.839 219.288,371.289C220.106,369.074 222.075,367.616 224.156,367.532L287.844,367.532C289.468,367.598 290.042,367.959 290.904,368.675C294.217,371.426 293.281,379.201 288.566,379.963C288.247,380.015 288.165,380.008 287.844,380.021L224.156,380.021C223.043,379.977 222.859,379.862 222.379,379.661C220.561,378.901 219.164,376.899 218.898,374.627C218.803,373.812 218.854,373.614 218.861,373.351Z" style="fill:url(#_Linear1);"/>
                </g>
                <g transform="matrix(5.36654e-17,1.00491,-1.28113,1.67666e-16,754.534,-39.6356)">
                    <path d="M216.208,373.427C216.33,372.291 216.488,371.981 216.801,371.387C217.882,369.342 220.433,367.822 223.265,367.572C223.66,367.537 223.76,367.541 224.156,367.532L287.844,367.532C293.895,367.666 298.325,373.949 293.78,377.938C292.488,379.071 290.657,379.812 288.735,379.982C288.34,380.017 288.24,380.013 287.844,380.021L224.156,380.021C222.704,379.989 222.3,379.883 221.527,379.671C218.721,378.901 216.582,376.82 216.245,374.476C216.148,373.802 216.2,373.642 216.208,373.427Z" style="fill:rgb(153,153,153);"/>
                </g>
                <g transform="matrix(6.26359e-18,0.230777,-1.28113,9.89355e-17,778.412,183.193)">
                    <path d="M189.503,373.608C190.236,370.362 205.718,367.577 224.156,367.532L287.844,367.532C308.276,367.582 325.873,371.212 321.888,374.954C318.884,377.774 304.175,379.982 287.844,380.021L224.156,380.021C206.124,379.977 190.252,377.265 189.503,373.946C189.491,373.777 189.491,373.777 189.503,373.608Z" style="fill:rgb(153,153,153);"/>
                </g>
            </g>
        </g>
    </g>
    <defs>
        <linearGradient id="_Linear1" x1="0" y1="0" x2="1" y2="0" gradientUnits="userSpaceOnUse" gradientTransform="matrix(63.6875,-3.91105e-16,-6.65291e-15,74.9341,224.156,373.777)"><stop offset="0" style="stop-color:rgb(0,255,226);stop-opacity:1"/><stop offset="1" style="stop-color:rgb(0,186,210);stop-opacity:1"/></linearGradient>
    </defs>
</svg>
