<?xml version="1.0" encoding="UTF-8" standalone="no"?>
<!DOCTYPE svg PUBLIC "-//W3C//DTD SVG 1.1//EN" "http://www.w3.org/Graphics/SVG/1.1/DTD/svg11.dtd">
<svg width="100%" height="100%" viewBox="0 0 128 128" version="1.1" xmlns="http://www.w3.org/2000/svg" xmlns:xlink="http://www.w3.org/1999/xlink" xml:space="preserve" xmlns:serif="http://www.serif.com/" style="fill-rule:evenodd;clip-rule:evenodd;stroke-linejoin:round;stroke-miterlimit:2;">
    <g transform="matrix(1,0,0,1,-384,-140)">
        <g id="Buckets" transform="matrix(1,0,0,1,192,2.37941)">
            <rect x="192" y="137.621" width="128" height="128" style="fill:none;"/>
            <g transform="matrix(1.20577,0,0,1.20577,166.892,208.472)">
                <circle cx="41.748" cy="26.471" r="13.27" style="fill:rgb(153,153,153);"/>
            </g>
            <g transform="matrix(1.20577,0,0,1.20577,166.892,130.933)">
                <circle cx="41.748" cy="26.471" r="13.27" style="fill:rgb(153,153,153);"/>
            </g>
            <g transform="matrix(1.20577,0,0,1.20577,166.892,169.703)">
                <circle cx="41.748" cy="26.471" r="13.27" style="fill:rgb(153,153,153);"/>
            </g>
            <g transform="matrix(1.20577,0,0,1.20577,205.662,208.472)">
                <circle cx="41.748" cy="26.471" r="13.27" style="fill:rgb(153,153,153);"/>
            </g>
            <g transform="matrix(1.20577,0,0,1.20577,205.662,130.933)">
                <circle cx="41.748" cy="26.471" r="13.27" style="fill:rgb(153,153,153);"/>
            </g>
            <g transform="matrix(1.20577,0,0,1.20577,244.431,208.472)">
                <circle cx="41.748" cy="26.471" r="13.27" style="fill:rgb(153,153,153);"/>
            </g>
            <g transform="matrix(1.20577,0,0,1.20577,244.431,130.933)">
                <circle cx="41.748" cy="26.471" r="13.27" style="fill:rgb(153,153,153);"/>
            </g>
            <g transform="matrix(1.20577,0,0,1.20577,244.431,169.703)">
                <circle cx="41.748" cy="26.471" r="13.27" style="fill:rgb(153,153,153);"/>
            </g>
            <g transform="matrix(1.20577,0,0,1.20577,205.662,169.703)">
                <circle cx="41.748" cy="26.471" r="13.27" style="fill:url(#_Linear1);"/>
            </g>
        </g>
    </g>
    <defs>
        <linearGradient id="_Linear1" x1="0" y1="0" x2="1" y2="0" gradientUnits="userSpaceOnUse" gradientTransform="matrix(1.57702e-15,26.5999,-25.7547,1.62878e-15,41.1792,13.1804)"><stop offset="0" style="stop-color:rgb(0,255,226);stop-opacity:1"/><stop offset="1" style="stop-color:rgb(0,186,210);stop-opacity:1"/></linearGradient>
    </defs>
</svg>
