<?xml version="1.0" encoding="UTF-8" standalone="no"?>
<!DOCTYPE svg PUBLIC "-//W3C//DTD SVG 1.1//EN" "http://www.w3.org/Graphics/SVG/1.1/DTD/svg11.dtd">
<svg width="100%" height="100%" viewBox="0 0 128 128" version="1.1" xmlns="http://www.w3.org/2000/svg" xmlns:xlink="http://www.w3.org/1999/xlink" xml:space="preserve" xmlns:serif="http://www.serif.com/" style="fill-rule:evenodd;clip-rule:evenodd;stroke-linecap:round;stroke-linejoin:round;stroke-miterlimit:1.5;">
    <g transform="matrix(1,0,0,1,-576,-140)">
        <g id="Polar-Plot" serif:id="Polar Plot" transform="matrix(1,0,0,1,384,2.37941)">
            <rect x="192" y="137.621" width="128" height="128" style="fill:none;"/>
            <g transform="matrix(0.930233,0,0,0.736284,-337.556,55.0727)">
                <ellipse cx="638.031" cy="199.037" rx="54.278" ry="29.721" style="fill:none;stroke:rgb(153,153,153);stroke-width:9.54px;"/>
            </g>
            <g transform="matrix(5.69603e-17,0.930233,-0.736284,4.50844e-17,402.509,-391.897)">
                <ellipse cx="638.031" cy="199.037" rx="54.278" ry="29.721" style="fill:none;stroke:rgb(153,153,153);stroke-width:9.54px;"/>
            </g>
            <g transform="matrix(-0.930233,1.13921e-16,-2.08048e-16,-1.69884,849.479,539.753)">
                <ellipse cx="638.031" cy="199.037" rx="54.278" ry="29.721" style="fill:none;stroke:rgb(153,153,153);stroke-width:5.84px;"/>
            </g>
            <g transform="matrix(1.69586,0,0,1.69586,217.015,134.226)">
                <circle cx="41.748" cy="26.471" r="13.27" style="fill:url(#_Linear1);"/>
            </g>
        </g>
    </g>
    <defs>
        <linearGradient id="_Linear1" x1="0" y1="0" x2="1" y2="0" gradientUnits="userSpaceOnUse" gradientTransform="matrix(1.57702e-15,26.5999,-25.7547,1.62878e-15,41.1792,13.1804)"><stop offset="0" style="stop-color:rgb(0,255,226);stop-opacity:1"/><stop offset="1" style="stop-color:rgb(0,186,210);stop-opacity:1"/></linearGradient>
    </defs>
</svg>
